<?xml version="1.0" encoding="UTF-8"?><svg id="Layer_1" xmlns="http://www.w3.org/2000/svg" xmlns:xlink="http://www.w3.org/1999/xlink" viewBox="0 0 1366 4754.32"><defs><style>.cls-1{fill:url(#linear-gradient);}.cls-2{fill:#efefef;}.cls-3{fill:none;stroke:#000;stroke-miterlimit:10;stroke-width:8px;}</style><linearGradient id="linear-gradient" x1="683" y1="0" x2="683" y2="4754.32" gradientUnits="userSpaceOnUse"><stop offset="0" stop-color="#1d99d5"/><stop offset=".27" stop-color="#2b76d6"/><stop offset=".72" stop-color="#020659"/><stop offset="1" stop-color="#010440"/></linearGradient></defs><path class="cls-2" d="M1000,746.76c0,60.95-12.59,125.77-49,169-45.58,54.12-123.7,90-200,90-68.46,0-140.95-28.68-185.89-73.46-45.16-44.99-86.11-97.75-86.11-166.54,0-74.48,10.1-155.45,62-201,43.74-38.38,150.23-71,213-71,83.44,0,146.93,31.91,192,95,29.06,40.68,54,104.2,54,158Z"/><rect class="cls-1" width="1366" height="4754.32"/><line class="cls-3" x1="186.5" y1="2526.07" x2="186" y2="2526"/><line class="cls-3" x1="301" y1="2668" x2="301" y2="2667.89"/></svg>